<svg width="106" height="94" viewBox="0 0 106 94" fill="none" xmlns="http://www.w3.org/2000/svg">
<path fill-rule="evenodd" clip-rule="evenodd" d="M73.4007 6.63406V6.63387C73.4087 6.14696 73.4158 5.71505 73.4566 5.44388C73.4697 5.35684 73.4799 5.25455 73.4914 5.13982C73.5463 4.59195 73.6296 3.76051 74.1881 2.95196C74.8742 1.9586 76.2171 1.03807 78.8428 0.338438L79.1002 1.30472C76.5814 1.97589 75.5039 2.80656 75.0109 3.5203C74.6125 4.09701 74.5557 4.62519 74.4979 5.163L74.4978 5.16327C74.4826 5.3054 74.4672 5.44819 74.4454 5.59274C74.4155 5.79163 74.4098 6.12572 74.4017 6.59627V6.59668C74.3994 6.73265 74.3969 6.88001 74.3935 7.03878C74.3792 7.71765 74.3485 8.54824 74.2359 9.41672C74.0137 11.1314 73.4589 13.1074 71.9552 14.3453L71.3196 13.5733C72.5181 12.5866 73.0302 10.9392 73.2442 9.28817C73.3498 8.47376 73.3796 7.68586 73.3938 7.01768C73.3965 6.88738 73.3986 6.75891 73.4007 6.63406ZM29.6367 14.5C29.6367 15.8807 28.5174 17 27.1367 17C25.756 17 24.6367 15.8807 24.6367 14.5C24.6367 13.1193 25.756 12 27.1367 12C28.5174 12 29.6367 13.1193 29.6367 14.5ZM100.637 46C103.398 46 105.637 43.7614 105.637 41C105.637 38.2386 103.398 36 100.637 36C97.8753 36 95.6367 38.2386 95.6367 41C95.6367 43.7614 97.8753 46 100.637 46ZM83.2622 88.4922C83.0689 88.359 82.8859 88.227 82.7547 88.1058C82.6992 88.0546 82.6295 87.9974 82.5501 87.9323L82.5497 87.932C82.1593 87.6119 81.5376 87.1021 81.2474 86.1855C80.8969 85.0785 81.0198 83.4544 82.0977 80.8422L83.0221 81.2236C81.9749 83.7616 81.9569 85.1137 82.2008 85.8836C82.3933 86.4918 82.7435 86.7849 83.1213 87.1012C83.2241 87.1872 83.3288 87.2749 83.4331 87.3711C83.5058 87.4383 83.6342 87.5341 83.8297 87.6689C83.9401 87.745 84.0592 87.825 84.1903 87.913L84.1944 87.9158C84.2929 87.9819 84.3981 88.0526 84.5115 88.1296C85.0307 88.4822 85.6607 88.927 86.2702 89.4634C87.4763 90.5249 88.6837 92.017 88.7129 93.9596L87.713 93.9746C87.6903 92.4598 86.746 91.2142 85.6095 90.2141C85.0477 89.7196 84.4587 89.3026 83.9497 88.9569C83.8993 88.9227 83.849 88.8887 83.7992 88.8551L83.6417 88.7492C83.5044 88.657 83.3748 88.5699 83.2622 88.4922ZM19.1367 86.0001C20.5174 86.0001 21.6367 84.8808 21.6367 83.5001C21.6367 82.1193 20.5174 81.0001 19.1367 81.0001C17.756 81.0001 16.6367 82.1193 16.6367 83.5001C16.6367 84.8808 17.756 86.0001 19.1367 86.0001ZM7.62773 49.6596C7.14573 49.7296 6.71817 49.7916 6.44392 49.7947C6.35591 49.7957 6.25329 49.8019 6.13821 49.8089C5.58861 49.8423 4.75455 49.893 3.86711 49.471C2.77685 48.9524 1.65349 47.774 0.54312 45.2939L1.45582 44.8853C2.52101 47.2645 3.51325 48.1953 4.29662 48.5679C4.92959 48.8689 5.46006 48.8406 6.0002 48.8117L6.00034 48.8117C6.14312 48.8041 6.28658 48.7964 6.43279 48.7948C6.63397 48.7925 6.96481 48.7447 7.43081 48.6774C7.5654 48.658 7.71127 48.6369 7.86854 48.6148C8.54097 48.5205 9.36578 48.418 10.2411 48.3903C11.9693 48.3356 14.0085 48.5673 15.4709 49.8538L14.8104 50.6046C13.6448 49.5793 11.9368 49.3371 10.2727 49.3898C9.45191 49.4157 8.66937 49.5122 8.00752 49.6051C7.87846 49.6232 7.75131 49.6417 7.62773 49.6596ZM53.6361 80.3334C72.0456 80.3334 86.9694 65.4095 86.9694 47C86.9694 28.5905 72.0456 13.6667 53.6361 13.6667C35.2266 13.6667 20.3027 28.5905 20.3027 47C20.3027 65.4095 35.2266 80.3334 53.6361 80.3334Z" fill="#5BC52A"/>
</svg>
